<svg xmlns:mydata="http://www.w3.org/2000/svg" mydata:contrastcolor="000000" mydata:template="Contrast" mydata:presentation="2.5" mydata:layouttype="undefined" mydata:specialfontid="undefined" mydata:id1="457" mydata:id2="071" mydata:companyname="arimateiajunior.dev" mydata:companytagline="Arquitetando Soluções, Desenvolvendo o Futuro" version="1.1" xmlns="http://www.w3.org/2000/svg" xmlns:xlink="http://www.w3.org/1999/xlink" style="height: 315px;" viewBox="0 0 550 470"><defs><linearGradient x1="73.14931" y1="235" x2="476.85069" y2="235" gradientUnits="userSpaceOnUse" id="color-16212396953"><stop offset="0" stop-color="#4568dc"></stop><stop offset="1" stop-color="#b06ab3"></stop></linearGradient></defs><g fill="url(#color-16212396953)" fill-rule="nonzero" stroke="none" stroke-width="1" stroke-linecap="butt" stroke-linejoin="miter" stroke-miterlimit="10" stroke-dasharray="" stroke-dashoffset="0" font-family="none" font-weight="none" font-size="none" text-anchor="none" style="mix-blend-mode: normal"><g data-paper-data="{&quot;isGlobalGroup&quot;:true,&quot;bounds&quot;:{&quot;x&quot;:73.14931480096178,&quot;y&quot;:115,&quot;width&quot;:403.7013703980765,&quot;height&quot;:240}}"><g data-paper-data="{&quot;isSecondaryText&quot;:true}" id="element-id-432"><path d="M78.56383,350.28095h-3.44504l1.72799,-3.44504zM78.90286,350.96996l0.85306,1.69518c0.2078,0.42653 1.01711,0.15311 0.73275,-0.31716l-3.29193,-6.47449c-0.07656,-0.14218 -0.2078,-0.2078 -0.34997,-0.2078c-0.14218,0 -0.29529,0.06562 -0.36091,0.2078l-3.30286,6.5073c-0.19686,0.43747 0.52496,0.72182 0.72182,0.31716l0.88587,-1.72799z" data-paper-data="{&quot;glyphName&quot;:&quot;A&quot;,&quot;glyphIndex&quot;:0,&quot;firstGlyphOfWord&quot;:true,&quot;word&quot;:1}" id="element-id-83691"></path><path d="M84.69199,346.57343h2.2092c1.26865,0 2.02328,0.72182 2.03421,1.61862c0.02187,0.82025 -0.60152,1.48738 -2.03421,1.48738h-2.2092zM86.8137,350.36845l2.2092,2.39512c0.36091,0.37185 0.96242,-0.10937 0.54683,-0.52496l-1.77174,-1.91391c1.34521,-0.22967 1.94672,-1.02804 1.94672,-2.13264c0,-1.27959 -0.96242,-2.35138 -2.85446,-2.35138h-2.59198c-0.24061,0 -0.40466,0.15311 -0.40466,0.38278v6.27763c0,0.49215 0.79837,0.49215 0.79837,-0.01094v-2.12171z" data-paper-data="{&quot;glyphName&quot;:&quot;R&quot;,&quot;glyphIndex&quot;:1,&quot;word&quot;:1}" id="element-id-53210"></path><path d="M99.23043,352.77451c0.37185,0.34997 0.92961,-0.16405 0.55777,-0.5359l-0.62339,-0.64526c0.5359,-0.56871 0.7765,-1.42176 0.78744,-2.38419c0,-1.70612 -1.26865,-3.1935 -2.97477,-3.45598c-0.41559,-0.04375 -0.7765,-0.04375 -1.15928,0c-1.74986,0.27342 -2.85446,1.70612 -2.85446,3.45598c0,2.34044 1.58581,3.71846 3.49972,3.71846c0.78744,0 1.57488,-0.29529 2.17639,-0.7765zM98.06021,350.45594v0c-0.34997,-0.41559 -0.94055,0.1203 -0.55777,0.50309l0.61245,0.62339c-0.47028,0.39372 -1.03898,0.61245 -1.65143,0.61245c-1.47645,0 -2.70135,-1.20303 -2.70135,-2.95289c0,-1.38895 0.84212,-2.54824 2.16545,-2.75603c0.3281,-0.04375 0.63433,-0.04375 0.94055,0c1.34521,0.21873 2.28576,1.35614 2.28576,2.75603c0,0.69994 -0.13124,1.29052 -0.52496,1.78267z" data-paper-data="{&quot;glyphName&quot;:&quot;Q&quot;,&quot;glyphIndex&quot;:2,&quot;word&quot;:1}" id="element-id-26833"></path><path d="M109.4817,349.72318c0,3.16069 -4.81212,3.16069 -4.81212,0v-3.58722c0,-0.49215 -0.82025,-0.49215 -0.82025,-0.01094v3.59815c0,2.09983 1.62956,3.16069 3.22631,3.16069c1.59675,0 3.22631,-1.06085 3.22631,-3.16069v-3.59815c0,-0.52496 -0.82025,-0.52496 -0.82025,0.01094z" data-paper-data="{&quot;glyphName&quot;:&quot;U&quot;,&quot;glyphIndex&quot;:3,&quot;word&quot;:1}" id="element-id-22377"></path><path d="M114.37403,352.5339c0,0.52496 0.82025,0.50309 0.82025,0v-6.54011c0,-0.5359 -0.82025,-0.54683 -0.82025,0z" data-paper-data="{&quot;glyphName&quot;:&quot;I&quot;,&quot;glyphIndex&quot;:4,&quot;word&quot;:1}" id="element-id-53310"></path><path d="M118.5664,345.84068c-0.51402,0 -0.51402,0.75463 0,0.75463h2.42793v5.93859c0,0.27342 0.2078,0.40466 0.39372,0.40466c0.18592,0 0.41559,-0.13124 0.41559,-0.40466c0,-1.96859 -0.01094,-3.97 -0.01094,-5.93859h2.43887c0.5359,0 0.5359,-0.75463 0,-0.75463z" data-paper-data="{&quot;glyphName&quot;:&quot;T&quot;,&quot;glyphIndex&quot;:5,&quot;word&quot;:1}" id="element-id-76521"></path><path d="M128.64269,349.71225h4.11218c0.45934,0 0.43747,-0.69994 0,-0.69994h-4.11218v-2.46074h4.31997c0.45934,0 0.48121,-0.69994 0.01094,-0.69994h-4.61526c-0.30623,0 -0.50309,0.21873 -0.50309,0.47028v6.00421c0,0.26248 0.19686,0.48121 0.50309,0.48121h4.60432c0.52496,0 0.45934,-0.72182 0,-0.72182h-4.31997z" data-paper-data="{&quot;glyphName&quot;:&quot;E&quot;,&quot;glyphIndex&quot;:6,&quot;word&quot;:1}" id="element-id-57116"></path><path d="M136.55353,345.84068c-0.51402,0 -0.51402,0.75463 0,0.75463h2.42793v5.93859c0,0.27342 0.2078,0.40466 0.39372,0.40466c0.18592,0 0.41559,-0.13124 0.41559,-0.40466c0,-1.96859 -0.01094,-3.97 -0.01094,-5.93859h2.43887c0.5359,0 0.5359,-0.75463 0,-0.75463z" data-paper-data="{&quot;glyphName&quot;:&quot;T&quot;,&quot;glyphIndex&quot;:7,&quot;word&quot;:1}" id="element-id-49222"></path><path d="M149.39679,350.28095h-3.44504l1.72799,-3.44504zM149.73582,350.96996l0.85306,1.69518c0.2078,0.42653 1.01711,0.15311 0.73275,-0.31716l-3.29193,-6.47449c-0.07656,-0.14218 -0.2078,-0.2078 -0.34997,-0.2078c-0.14218,0 -0.29529,0.06562 -0.36091,0.2078l-3.30286,6.5073c-0.19686,0.43747 0.52496,0.72182 0.72182,0.31716l0.88587,-1.72799z" data-paper-data="{&quot;glyphName&quot;:&quot;A&quot;,&quot;glyphIndex&quot;:8,&quot;word&quot;:1}" id="element-id-5096"></path><path d="M159.659,349.98566l0.10937,1.65143l-4.21061,-5.63237c-0.27342,-0.40466 -0.88587,-0.31716 -0.88587,0.22967v6.26669c0,0.54683 0.83118,0.5359 0.83118,0v-3.86063l-0.08749,-1.50926l4.0903,5.47926c0.22967,0.38278 0.9843,0.3281 0.9843,-0.21873v-6.27763c0,-0.48121 -0.83118,-0.45934 -0.83118,0z" data-paper-data="{&quot;glyphName&quot;:&quot;N&quot;,&quot;glyphIndex&quot;:9,&quot;word&quot;:1}" id="element-id-61438"></path><path d="M165.06535,346.55156h2.09983c1.6405,0 2.46074,1.39989 2.46074,2.77791c0,1.37802 -0.82025,2.76697 -2.46074,2.76697h-2.09983zM167.16518,352.80732c2.17639,0 3.25912,-1.73893 3.25912,-3.47785c0,-1.73893 -1.08273,-3.47785 -3.25912,-3.47785h-2.38419c-0.27342,0 -0.50309,0.2078 -0.50309,0.45934v6.02609c0,0.25154 0.22967,0.47028 0.50309,0.47028z" data-paper-data="{&quot;glyphName&quot;:&quot;D&quot;,&quot;glyphIndex&quot;:10,&quot;word&quot;:1}" id="element-id-72345"></path><path d="M177.26334,352.92762c1.85923,0 3.49972,-1.44364 3.49972,-3.71846c0,-1.79361 -1.30146,-3.1935 -2.9857,-3.45598c-0.38278,-0.04375 -0.75463,-0.05468 -1.15928,0c-1.73893,0.27342 -2.89821,1.73893 -2.89821,3.45598c0,2.31857 1.57488,3.71846 3.54347,3.71846zM176.72745,346.48594c0.30623,-0.04375 0.62339,-0.04375 0.95149,0c1.34521,0.21873 2.27482,1.34521 2.27482,2.75603c0,1.83736 -1.21397,2.93102 -2.69041,2.93102c-1.54207,0 -2.72322,-1.13741 -2.72322,-2.93102c0,-1.48738 0.86399,-2.54824 2.18733,-2.75603z" data-paper-data="{&quot;glyphName&quot;:&quot;O&quot;,&quot;glyphIndex&quot;:11,&quot;lastGlyphOfWord&quot;:true,&quot;word&quot;:1}" id="element-id-44275"></path><path d="M189.24625,351.27619c0.36091,1.3124 2.06702,1.69518 3.18256,1.69518c1.34521,0 3.21537,-0.51402 3.21537,-2.18733c0,-1.6405 -1.60769,-1.71705 -3.10601,-1.84829c-1.26865,-0.09843 -2.36231,-0.19686 -2.36231,-1.14835c0,-0.99523 1.42176,-1.29052 2.15452,-1.29052c0.78744,0 1.95766,0.14218 2.28576,0.97336c0.16405,0.37185 0.90774,0.17499 0.74369,-0.26248c-0.45934,-1.24678 -1.89204,-1.52019 -3.04039,-1.52019c-1.33427,0 -2.99664,0.64526 -2.99664,2.0889c0,1.62956 1.61862,1.77174 3.12788,1.89204c1.20303,0.09843 2.35138,0.17499 2.35138,1.12647c0,1.1046 -1.44364,1.38895 -2.37325,1.38895c-0.87493,0 -2.0889,-0.19686 -2.37325,-1.1046c-0.08749,-0.4484 -0.94055,-0.28435 -0.80931,0.19686z" data-paper-data="{&quot;glyphName&quot;:&quot;S&quot;,&quot;glyphIndex&quot;:12,&quot;firstGlyphOfWord&quot;:true,&quot;word&quot;:2}" id="element-id-19212"></path><path d="M202.40668,352.92762c1.85923,0 3.49972,-1.44364 3.49972,-3.71846c0,-1.79361 -1.30146,-3.1935 -2.9857,-3.45598c-0.38278,-0.04375 -0.75463,-0.05468 -1.15928,0c-1.73893,0.27342 -2.89821,1.73893 -2.89821,3.45598c0,2.31857 1.57488,3.71846 3.54347,3.71846zM201.87078,346.48594c0.30623,-0.04375 0.62339,-0.04375 0.95149,0c1.34521,0.21873 2.27482,1.34521 2.27482,2.75603c0,1.83736 -1.21397,2.93102 -2.69041,2.93102c-1.54207,0 -2.72322,-1.13741 -2.72322,-2.93102c0,-1.48738 0.86399,-2.54824 2.18733,-2.75603z" data-paper-data="{&quot;glyphName&quot;:&quot;O&quot;,&quot;glyphIndex&quot;:13,&quot;word&quot;:2}" id="element-id-88666"></path><path d="M214.61561,352.80732c0.55777,0 0.55777,-0.72182 0,-0.72182h-4.0903v-5.96047c0,-0.51402 -0.80931,-0.51402 -0.80931,0v6.27763c0,0.26248 0.1203,0.40466 0.41559,0.40466z" data-paper-data="{&quot;glyphName&quot;:&quot;L&quot;,&quot;glyphIndex&quot;:14,&quot;word&quot;:2}" id="element-id-72678"></path><path d="M223.45606,349.72318c0,3.16069 -4.81212,3.16069 -4.81212,0v-3.58722c0,-0.49215 -0.82025,-0.49215 -0.82025,-0.01094v3.59815c0,2.09983 1.62956,3.16069 3.22631,3.16069c1.59675,0 3.22631,-1.06085 3.22631,-3.16069v-3.59815c0,-0.52496 -0.82025,-0.52496 -0.82025,0.01094z" data-paper-data="{&quot;glyphName&quot;:&quot;U&quot;,&quot;glyphIndex&quot;:15,&quot;word&quot;:2}" id="element-id-99155"></path><path d="M234.39634,351.56054c0.28435,-0.40466 -0.38278,-0.80931 -0.63433,-0.43747c-0.22967,0.29529 -0.55777,0.55777 -0.8968,0.73275c-0.41559,0.2078 -0.86399,0.31716 -1.26865,0.31716c-1.50926,0 -2.78884,-1.26865 -2.78884,-2.93102c0,-1.58581 0.95149,-2.5373 2.29669,-2.7451c0.96242,-0.10937 1.82642,0.01094 2.57011,0.79837c0.30623,0.3281 0.8968,-0.1203 0.56871,-0.49215c-0.86399,-0.90774 -1.97953,-1.2249 -3.25912,-1.04992c-1.68424,0.26248 -2.96383,1.68424 -2.96383,3.47785c0,2.05609 1.50926,3.54347 3.27005,3.68565l-0.18592,0.56871l0.25154,0.28435c0.25154,-0.09843 0.76556,-0.04375 0.76556,0.28435c0,0.42653 -0.79837,0.39372 -1.01711,0.04375c-0.22967,-0.37185 -0.76556,-0.04375 -0.55777,0.37185c0.49215,0.82025 2.28576,0.69994 2.28576,-0.43747c0,-0.38278 -0.28435,-0.80931 -0.91868,-0.75463l0.14218,-0.39372c0.39372,-0.05468 0.78744,-0.17499 1.15928,-0.34997c0.47028,-0.22967 0.88587,-0.55777 1.18116,-0.97336z" data-paper-data="{&quot;glyphName&quot;:&quot;Ç&quot;,&quot;glyphIndex&quot;:16,&quot;word&quot;:2}" id="element-id-48712"></path><path d="M241.11509,352.92762c-1.96859,0 -3.54347,-1.39989 -3.54347,-3.71846c0,-1.71705 1.15928,-3.18256 2.89821,-3.45598c0.40466,-0.05468 0.7765,-0.04375 1.15928,0c1.68424,0.26248 2.9857,1.66237 2.9857,3.45598c0,2.27482 -1.6405,3.71846 -3.49972,3.71846zM240.57919,346.48594c-1.32333,0.2078 -2.18733,1.26865 -2.18733,2.75603c0,1.79361 1.18116,2.93102 2.72322,2.93102c1.47645,0 2.69041,-1.09366 2.69041,-2.93102c0,-1.41083 -0.92961,-2.5373 -2.27482,-2.75603c-0.3281,-0.04375 -0.64526,-0.04375 -0.95149,0zM239.69332,344.58296c-0.28435,0.4484 0.31716,0.73275 0.5359,0.39372c0.19686,-0.37185 0.60152,-0.18592 0.90774,0.01094c0.60152,0.37185 1.24678,0.27342 1.54207,-0.3281c0.22967,-0.37185 -0.40466,-0.73275 -0.62339,-0.27342c-0.31716,0.5359 -0.80931,-0.27342 -1.48738,-0.27342c-0.29529,0 -0.63433,0.08749 -0.87493,0.47028z" data-paper-data="{&quot;glyphName&quot;:&quot;Õ&quot;,&quot;glyphIndex&quot;:17,&quot;word&quot;:2}" id="element-id-77801"></path><path d="M249.21184,349.71225h4.11218c0.45934,0 0.43747,-0.69994 0,-0.69994h-4.11218v-2.46074h4.31997c0.45934,0 0.48121,-0.69994 0.01094,-0.69994h-4.61526c-0.30623,0 -0.50309,0.21873 -0.50309,0.47028v6.00421c0,0.26248 0.19686,0.48121 0.50309,0.48121h4.60432c0.52496,0 0.45934,-0.72182 0,-0.72182h-4.31997z" data-paper-data="{&quot;glyphName&quot;:&quot;E&quot;,&quot;glyphIndex&quot;:18,&quot;word&quot;:2}" id="element-id-67076"></path><path d="M257.10081,351.27619c0.36091,1.3124 2.06702,1.69518 3.18256,1.69518c1.34521,0 3.21537,-0.51402 3.21537,-2.18733c0,-1.6405 -1.60769,-1.71705 -3.10601,-1.84829c-1.26865,-0.09843 -2.36231,-0.19686 -2.36231,-1.14835c0,-0.99523 1.42176,-1.29052 2.15452,-1.29052c0.78744,0 1.95766,0.14218 2.28576,0.97336c0.16405,0.37185 0.90774,0.17499 0.74369,-0.26248c-0.45934,-1.24678 -1.89204,-1.52019 -3.04039,-1.52019c-1.33427,0 -2.99664,0.64526 -2.99664,2.0889c0,1.62956 1.61862,1.77174 3.12788,1.89204c1.20303,0.09843 2.35138,0.17499 2.35138,1.12647c0,1.1046 -1.44364,1.38895 -2.37325,1.38895c-0.87493,0 -2.0889,-0.19686 -2.37325,-1.1046c-0.08749,-0.4484 -0.94055,-0.28435 -0.80931,0.19686z" data-paper-data="{&quot;glyphName&quot;:&quot;S&quot;,&quot;glyphIndex&quot;:19,&quot;word&quot;:2}" id="element-id-40534"></path><path d="M267.2974,352.63233c0.24061,-0.4484 -0.47028,-0.79837 -0.68901,-0.31716l-0.4484,1.04992c-0.19686,0.4484 0.40466,0.7765 0.64526,0.29529z" data-paper-data="{&quot;glyphName&quot;:&quot;,&quot;,&quot;glyphIndex&quot;:20,&quot;lastGlyphOfWord&quot;:true,&quot;word&quot;:2}" id="element-id-32294"></path><path d="M276.48053,346.55156h2.09983c1.6405,0 2.46074,1.39989 2.46074,2.77791c0,1.37802 -0.82025,2.76697 -2.46074,2.76697h-2.09983zM278.58036,352.80732c2.17639,0 3.25912,-1.73893 3.25912,-3.47785c0,-1.73893 -1.08273,-3.47785 -3.25912,-3.47785h-2.38419c-0.27342,0 -0.50309,0.2078 -0.50309,0.45934v6.02609c0,0.25154 0.22967,0.47028 0.50309,0.47028z" data-paper-data="{&quot;glyphName&quot;:&quot;D&quot;,&quot;glyphIndex&quot;:21,&quot;firstGlyphOfWord&quot;:true,&quot;word&quot;:3}" id="element-id-80720"></path><path d="M286.34902,349.71225h4.11218c0.45934,0 0.43747,-0.69994 0,-0.69994h-4.11218v-2.46074h4.31997c0.45934,0 0.48121,-0.69994 0.01094,-0.69994h-4.61526c-0.30623,0 -0.50309,0.21873 -0.50309,0.47028v6.00421c0,0.26248 0.19686,0.48121 0.50309,0.48121h4.60432c0.52496,0 0.45934,-0.72182 0,-0.72182h-4.31997z" data-paper-data="{&quot;glyphName&quot;:&quot;E&quot;,&quot;glyphIndex&quot;:22,&quot;word&quot;:3}" id="element-id-79159"></path><path d="M294.23798,351.27619c0.36091,1.3124 2.06702,1.69518 3.18256,1.69518c1.34521,0 3.21537,-0.51402 3.21537,-2.18733c0,-1.6405 -1.60769,-1.71705 -3.10601,-1.84829c-1.26865,-0.09843 -2.36231,-0.19686 -2.36231,-1.14835c0,-0.99523 1.42176,-1.29052 2.15452,-1.29052c0.78744,0 1.95766,0.14218 2.28576,0.97336c0.16405,0.37185 0.90774,0.17499 0.74369,-0.26248c-0.45934,-1.24678 -1.89204,-1.52019 -3.04039,-1.52019c-1.33427,0 -2.99664,0.64526 -2.99664,2.0889c0,1.62956 1.61862,1.77174 3.12788,1.89204c1.20303,0.09843 2.35138,0.17499 2.35138,1.12647c0,1.1046 -1.44364,1.38895 -2.37325,1.38895c-0.87493,0 -2.0889,-0.19686 -2.37325,-1.1046c-0.08749,-0.4484 -0.94055,-0.28435 -0.80931,0.19686z" data-paper-data="{&quot;glyphName&quot;:&quot;S&quot;,&quot;glyphIndex&quot;:23,&quot;word&quot;:3}" id="element-id-7052"></path><path d="M304.95954,349.71225h4.11218c0.45934,0 0.43747,-0.69994 0,-0.69994h-4.11218v-2.46074h4.31997c0.45934,0 0.48121,-0.69994 0.01094,-0.69994h-4.61526c-0.30623,0 -0.50309,0.21873 -0.50309,0.47028v6.00421c0,0.26248 0.19686,0.48121 0.50309,0.48121h4.60432c0.52496,0 0.45934,-0.72182 0,-0.72182h-4.31997z" data-paper-data="{&quot;glyphName&quot;:&quot;E&quot;,&quot;glyphIndex&quot;:24,&quot;word&quot;:3}" id="element-id-50100"></path><path d="M318.3715,349.98566l0.10937,1.65143l-4.21061,-5.63237c-0.27342,-0.40466 -0.88587,-0.31716 -0.88587,0.22967v6.26669c0,0.54683 0.83118,0.5359 0.83118,0v-3.86063l-0.08749,-1.50926l4.0903,5.47926c0.22967,0.38278 0.9843,0.3281 0.9843,-0.21873v-6.27763c0,-0.48121 -0.83118,-0.45934 -0.83118,0z" data-paper-data="{&quot;glyphName&quot;:&quot;N&quot;,&quot;glyphIndex&quot;:25,&quot;word&quot;:3}" id="element-id-97577"></path><path d="M325.72457,352.63233c0.18592,0.38278 0.57964,0.31716 0.73275,0.03281l3.14975,-6.37606c0.16405,-0.49215 -0.57964,-0.73275 -0.75463,-0.28435l-2.7451,5.57769l-2.81072,-5.59956c-0.21873,-0.47028 -0.97336,-0.16405 -0.76556,0.30623z" data-paper-data="{&quot;glyphName&quot;:&quot;V&quot;,&quot;glyphIndex&quot;:26,&quot;word&quot;:3}" id="element-id-73717"></path><path d="M335.92116,352.92762c1.85923,0 3.49972,-1.44364 3.49972,-3.71846c0,-1.79361 -1.30146,-3.1935 -2.9857,-3.45598c-0.38278,-0.04375 -0.75463,-0.05468 -1.15928,0c-1.73893,0.27342 -2.89821,1.73893 -2.89821,3.45598c0,2.31857 1.57488,3.71846 3.54347,3.71846zM335.38526,346.48594c0.30623,-0.04375 0.62339,-0.04375 0.95149,0c1.34521,0.21873 2.27482,1.34521 2.27482,2.75603c0,1.83736 -1.21397,2.93102 -2.69041,2.93102c-1.54207,0 -2.72322,-1.13741 -2.72322,-2.93102c0,-1.48738 0.86399,-2.54824 2.18733,-2.75603z" data-paper-data="{&quot;glyphName&quot;:&quot;O&quot;,&quot;glyphIndex&quot;:27,&quot;word&quot;:3}" id="element-id-84022"></path><path d="M348.13009,352.80732c0.55777,0 0.55777,-0.72182 0,-0.72182h-4.0903v-5.96047c0,-0.51402 -0.80931,-0.51402 -0.80931,0v6.27763c0,0.26248 0.1203,0.40466 0.41559,0.40466z" data-paper-data="{&quot;glyphName&quot;:&quot;L&quot;,&quot;glyphIndex&quot;:28,&quot;word&quot;:3}" id="element-id-6847"></path><path d="M354.25826,352.63233c0.18592,0.38278 0.57964,0.31716 0.73275,0.03281l3.14975,-6.37606c0.16405,-0.49215 -0.57964,-0.73275 -0.75463,-0.28435l-2.7451,5.57769l-2.81072,-5.59956c-0.21873,-0.47028 -0.97336,-0.16405 -0.76556,0.30623z" data-paper-data="{&quot;glyphName&quot;:&quot;V&quot;,&quot;glyphIndex&quot;:29,&quot;word&quot;:3}" id="element-id-2957"></path><path d="M362.35502,349.71225h4.11218c0.45934,0 0.43747,-0.69994 0,-0.69994h-4.11218v-2.46074h4.31997c0.45934,0 0.48121,-0.69994 0.01094,-0.69994h-4.61526c-0.30623,0 -0.50309,0.21873 -0.50309,0.47028v6.00421c0,0.26248 0.19686,0.48121 0.50309,0.48121h4.60432c0.52496,0 0.45934,-0.72182 0,-0.72182h-4.31997z" data-paper-data="{&quot;glyphName&quot;:&quot;E&quot;,&quot;glyphIndex&quot;:30,&quot;word&quot;:3}" id="element-id-84099"></path><path d="M375.76698,349.98566l0.10937,1.65143l-4.21061,-5.63237c-0.27342,-0.40466 -0.88587,-0.31716 -0.88587,0.22967v6.26669c0,0.54683 0.83118,0.5359 0.83118,0v-3.86063l-0.08749,-1.50926l4.0903,5.47926c0.22967,0.38278 0.9843,0.3281 0.9843,-0.21873v-6.27763c0,-0.48121 -0.83118,-0.45934 -0.83118,0z" data-paper-data="{&quot;glyphName&quot;:&quot;N&quot;,&quot;glyphIndex&quot;:31,&quot;word&quot;:3}" id="element-id-44027"></path><path d="M381.17333,346.55156h2.09983c1.6405,0 2.46074,1.39989 2.46074,2.77791c0,1.37802 -0.82025,2.76697 -2.46074,2.76697h-2.09983zM383.27316,352.80732c2.17639,0 3.25912,-1.73893 3.25912,-3.47785c0,-1.73893 -1.08273,-3.47785 -3.25912,-3.47785h-2.38419c-0.27342,0 -0.50309,0.2078 -0.50309,0.45934v6.02609c0,0.25154 0.22967,0.47028 0.50309,0.47028z" data-paper-data="{&quot;glyphName&quot;:&quot;D&quot;,&quot;glyphIndex&quot;:32,&quot;word&quot;:3}" id="element-id-22907"></path><path d="M393.37132,352.92762c1.85923,0 3.49972,-1.44364 3.49972,-3.71846c0,-1.79361 -1.30146,-3.1935 -2.9857,-3.45598c-0.38278,-0.04375 -0.75463,-0.05468 -1.15928,0c-1.73893,0.27342 -2.89821,1.73893 -2.89821,3.45598c0,2.31857 1.57488,3.71846 3.54347,3.71846zM392.83543,346.48594c0.30623,-0.04375 0.62339,-0.04375 0.95149,0c1.34521,0.21873 2.27482,1.34521 2.27482,2.75603c0,1.83736 -1.21397,2.93102 -2.69041,2.93102c-1.54207,0 -2.72322,-1.13741 -2.72322,-2.93102c0,-1.48738 0.86399,-2.54824 2.18733,-2.75603z" data-paper-data="{&quot;glyphName&quot;:&quot;O&quot;,&quot;glyphIndex&quot;:33,&quot;lastGlyphOfWord&quot;:true,&quot;word&quot;:3}" id="element-id-66816"></path><path d="M409.06175,352.92762c1.85923,0 3.49972,-1.44364 3.49972,-3.71846c0,-1.79361 -1.30146,-3.1935 -2.9857,-3.45598c-0.38278,-0.04375 -0.75463,-0.05468 -1.15928,0c-1.73893,0.27342 -2.89821,1.73893 -2.89821,3.45598c0,2.31857 1.57488,3.71846 3.54347,3.71846zM408.52586,346.48594c0.30623,-0.04375 0.62339,-0.04375 0.95149,0c1.34521,0.21873 2.27482,1.34521 2.27482,2.75603c0,1.83736 -1.21397,2.93102 -2.69041,2.93102c-1.54207,0 -2.72322,-1.13741 -2.72322,-2.93102c0,-1.48738 0.86399,-2.54824 2.18733,-2.75603z" data-paper-data="{&quot;glyphName&quot;:&quot;O&quot;,&quot;glyphIndex&quot;:34,&quot;firstGlyphOfWord&quot;:true,&quot;lastGlyphOfWord&quot;:true,&quot;word&quot;:4}" id="element-id-98818"></path><path d="M421.64618,352.5339c0,0.5359 0.78744,0.5359 0.78744,-0.01094v-2.55917h3.99187c0.4484,0 0.42653,-0.67807 0,-0.67807h-3.99187v-2.7451h4.19967c0.45934,0 0.45934,-0.68901 0,-0.68901h-4.5059c-0.26248,0 -0.48121,0.21873 -0.48121,0.47028z" data-paper-data="{&quot;glyphName&quot;:&quot;F&quot;,&quot;glyphIndex&quot;:35,&quot;firstGlyphOfWord&quot;:true,&quot;word&quot;:5}" id="element-id-78677"></path><path d="M436.27211,349.72318c0,3.16069 -4.81212,3.16069 -4.81212,0v-3.58722c0,-0.49215 -0.82025,-0.49215 -0.82025,-0.01094v3.59815c0,2.09983 1.62956,3.16069 3.22631,3.16069c1.59675,0 3.22631,-1.06085 3.22631,-3.16069v-3.59815c0,-0.52496 -0.82025,-0.52496 -0.82025,0.01094z" data-paper-data="{&quot;glyphName&quot;:&quot;U&quot;,&quot;glyphIndex&quot;:36,&quot;word&quot;:5}" id="element-id-29601"></path><path d="M440.67228,345.84068c-0.51402,0 -0.51402,0.75463 0,0.75463h2.42793v5.93859c0,0.27342 0.2078,0.40466 0.39372,0.40466c0.18592,0 0.41559,-0.13124 0.41559,-0.40466c0,-1.96859 -0.01094,-3.97 -0.01094,-5.93859h2.43887c0.5359,0 0.5359,-0.75463 0,-0.75463z" data-paper-data="{&quot;glyphName&quot;:&quot;T&quot;,&quot;glyphIndex&quot;:37,&quot;word&quot;:5}" id="element-id-38645"></path><path d="M455.57163,349.72318c0,3.16069 -4.81212,3.16069 -4.81212,0v-3.58722c0,-0.49215 -0.82025,-0.49215 -0.82025,-0.01094v3.59815c0,2.09983 1.62956,3.16069 3.22631,3.16069c1.59675,0 3.22631,-1.06085 3.22631,-3.16069v-3.59815c0,-0.52496 -0.82025,-0.52496 -0.82025,0.01094z" data-paper-data="{&quot;glyphName&quot;:&quot;U&quot;,&quot;glyphIndex&quot;:38,&quot;word&quot;:5}" id="element-id-87209"></path><path d="M461.33889,346.57343h2.2092c1.26865,0 2.02328,0.72182 2.03421,1.61862c0.02187,0.82025 -0.60152,1.48738 -2.03421,1.48738h-2.2092zM463.46059,350.36845l2.2092,2.39512c0.36091,0.37185 0.96242,-0.10937 0.54683,-0.52496l-1.77174,-1.91391c1.34521,-0.22967 1.94672,-1.02804 1.94672,-2.13264c0,-1.27959 -0.96242,-2.35138 -2.85446,-2.35138h-2.59198c-0.24061,0 -0.40466,0.15311 -0.40466,0.38278v6.27763c0,0.49215 0.79837,0.49215 0.79837,-0.01094v-2.12171z" data-paper-data="{&quot;glyphName&quot;:&quot;R&quot;,&quot;glyphIndex&quot;:39,&quot;word&quot;:5}" id="element-id-54155"></path><path d="M473.35096,352.92762c1.85923,0 3.49972,-1.44364 3.49972,-3.71846c0,-1.79361 -1.30146,-3.1935 -2.9857,-3.45598c-0.38278,-0.04375 -0.75463,-0.05468 -1.15928,0c-1.73893,0.27342 -2.89821,1.73893 -2.89821,3.45598c0,2.31857 1.57488,3.71846 3.54347,3.71846zM472.81507,346.48594c0.30623,-0.04375 0.62339,-0.04375 0.95149,0c1.34521,0.21873 2.27482,1.34521 2.27482,2.75603c0,1.83736 -1.21397,2.93102 -2.69041,2.93102c-1.54207,0 -2.72322,-1.13741 -2.72322,-2.93102c0,-1.48738 0.86399,-2.54824 2.18733,-2.75603z" data-paper-data="{&quot;glyphName&quot;:&quot;O&quot;,&quot;glyphIndex&quot;:40,&quot;lastGlyphOfWord&quot;:true,&quot;word&quot;:5}" id="element-id-43352"></path></g><g data-paper-data="{&quot;isPrimaryText&quot;:true}" id="element-id-50174"><path d="M81.32605,325.27085l-1.54928,9.69733h-6.62746l5.22164,-30.81339h6.05366l-2.12308,14.89027h4.70521l-2.35261,-16.583h-5.99628l1.66404,-9.66863h8.75054l5.45116,32.47743zM94.78181,326.96358l1.34844,8.0046h-6.68484l-1.20499,-8.0046z" data-paper-data="{&quot;glyphName&quot;:&quot;A&quot;,&quot;glyphIndex&quot;:0,&quot;firstGlyphOfWord&quot;:true,&quot;word&quot;:1}" id="element-id-84046"></path><path d="M105.74151,320.79516v14.17301h-6.36925v-14.17301zM111.50826,299.6504c-0.51643,-0.24865 -1.15718,-0.37297 -1.92225,-0.37297h-3.8445v13.51314h3.8445c1.01372,0 1.86487,-0.35385 2.55344,-1.06154c0.72682,-0.72682 1.09023,-1.59709 1.09023,-2.61082v-15.86574c1.66404,0.47817 3.00292,1.30063 4.01664,2.46737c1.45364,1.70229 2.18046,4.08359 2.18046,7.14389v6.11104c0,2.98379 -1.13805,5.5181 -3.41415,7.60293l4.70521,18.39049h-6.85698l-3.8445,-15.86574c-0.13389,0 -0.33472,0 -0.6025,0h-10.04161v-26.30902h10.04161c0.74595,0 1.44408,0.03825 2.09439,0.11476z" data-paper-data="{&quot;glyphName&quot;:&quot;R&quot;,&quot;glyphIndex&quot;:1,&quot;word&quot;:1}" id="element-id-61484"></path><path d="M129.98482,334.96818h-6.36925v-34.62921h6.36925zM123.61557,298.64624v-5.85282h6.36925v5.85282z" data-paper-data="{&quot;glyphName&quot;:&quot;I&quot;,&quot;glyphIndex&quot;:2,&quot;word&quot;:1}" id="element-id-99457"></path><path d="M149.09257,321.45504l5.39378,-28.719h8.75054v42.23214h-6.34056v-26.50985l-2.72558,12.99671zM141.74785,292.73604h1.09023l5.93889,30.41173h5.04949l-2.46737,11.82041h-5.13557l-4.47569,-19.16513zM140.05512,334.96818h-6.34056v-42.23214h6.34056z" data-paper-data="{&quot;glyphName&quot;:&quot;M&quot;,&quot;glyphIndex&quot;:3,&quot;word&quot;:1}" id="element-id-77715"></path><path d="M174.71302,325.27085l-1.54928,9.69733h-6.62746l5.22164,-30.81339h6.05366l-2.12308,14.89027h4.70521l-2.35261,-16.583h-5.99628l1.66404,-9.66863h8.75054l5.45116,32.47743zM188.16877,326.96358l1.34844,8.0046h-6.68484l-1.20499,-8.0046z" data-paper-data="{&quot;glyphName&quot;:&quot;A&quot;,&quot;glyphIndex&quot;:4,&quot;word&quot;:1}" id="element-id-70657"></path><path d="M192.61577,299.19136v-6.39794h19.8537v6.39794zM205.75593,300.88409v34.08409h-6.36925v-34.08409z" data-paper-data="{&quot;glyphName&quot;:&quot;T&quot;,&quot;glyphIndex&quot;:5,&quot;word&quot;:1}" id="element-id-69654"></path><path d="M216.14183,334.96818v-6.28318h18.10359v6.28318zM224.17511,292.73604h10.0703v6.39794h-10.0703zM216.14183,326.96358v-34.22754h6.34056v17.93144h8.5784v6.39794h-8.5784v9.89816z" data-paper-data="{&quot;glyphName&quot;:&quot;E&quot;,&quot;glyphIndex&quot;:6,&quot;word&quot;:1}" id="element-id-83232"></path><path d="M244.22964,334.96818h-6.36925v-34.62921h6.36925zM237.86039,298.64624v-5.85282h6.36925v5.85282z" data-paper-data="{&quot;glyphName&quot;:&quot;I&quot;,&quot;glyphIndex&quot;:7,&quot;word&quot;:1}" id="element-id-50311"></path><path d="M255.82053,325.27085l-1.54928,9.69733h-6.62746l5.22164,-30.81339h6.05366l-2.12308,14.89027h4.70521l-2.35261,-16.583h-5.99628l1.66404,-9.66863h8.75054l5.45116,32.47743zM269.27628,326.96358l1.34844,8.0046h-6.68484l-1.20499,-8.0046z" data-paper-data="{&quot;glyphName&quot;:&quot;A&quot;,&quot;glyphIndex&quot;:8,&quot;word&quot;:1}" id="element-id-85267"></path><path d="M287.49463,325.4143c0,0.72682 -0.06694,1.42495 -0.20083,2.09439h-6.57008c0.36341,-0.57381 0.54512,-1.22412 0.54512,-1.95094v-25.21878h6.2258zM286.80606,329.20142c-0.4973,1.22412 -1.25281,2.33348 -2.26653,3.32808c-1.95094,1.95094 -4.31311,2.92641 -7.08651,2.92641c-1.62578,0 -2.94554,-0.17214 -3.95926,-0.51643l0.91809,-5.9102c0.70769,0.13389 1.31975,0.20083 1.83618,0.20083c0.32516,0.01913 0.7842,0.00956 1.37713,-0.02869zM281.26883,298.64624v-5.85282h6.2258v5.85282z" data-paper-data="{&quot;glyphName&quot;:&quot;J&quot;,&quot;glyphIndex&quot;:9,&quot;word&quot;:1}" id="element-id-72167"></path><path d="M303.93418,327.25048c0.34428,-0.55468 0.51643,-1.18587 0.51643,-1.89356v-32.5635h6.65615v32.62088c0,0.63119 -0.05738,1.24325 -0.17214,1.83618zM298.85599,328.42679c0.53555,0.34428 1.15718,0.51643 1.86487,0.51643h9.7834c-0.4973,1.33888 -1.29106,2.54387 -2.3813,3.61498c-1.95094,1.93181 -4.32267,2.89772 -7.1152,2.89772c-0.74595,0 -1.46321,-0.06694 -2.15177,-0.20083zM297.16327,334.73865c-1.20499,-0.4973 -2.30479,-1.23368 -3.29939,-2.20915c-1.95094,-1.95094 -2.92641,-4.32267 -2.92641,-7.1152v-8.14805v-8.14805c-0.01913,-6.54139 -0.01913,-11.98299 0,-16.32479h6.2258c-0.01913,3.69149 -0.02869,8.27237 -0.02869,13.74266l0.02869,13.74266z" data-paper-data="{&quot;glyphName&quot;:&quot;U&quot;,&quot;glyphIndex&quot;:10,&quot;word&quot;:1}" id="element-id-92746"></path><path d="M330.58748,319.38934v-26.6533h6.34056v26.6533zM323.04193,295.77721l7.54555,25.30485h6.34056v13.88611h-6.82829l-7.05782,-21.77595zM321.32051,334.96818h-6.34056v-42.23214h6.34056z" data-paper-data="{&quot;glyphName&quot;:&quot;N&quot;,&quot;glyphIndex&quot;:11,&quot;word&quot;:1}" id="element-id-35743"></path><path d="M346.85488,334.96818h-6.36925v-34.62921h6.36925zM340.48564,298.64624v-5.85282h6.36925v5.85282z" data-paper-data="{&quot;glyphName&quot;:&quot;I&quot;,&quot;glyphIndex&quot;:12,&quot;word&quot;:1}" id="element-id-68781"></path><path d="M363.983,302.26122c0,-1.01372 -0.34428,-1.87443 -1.03285,-2.58213c-0.72682,-0.70769 -1.58753,-1.06154 -2.58213,-1.06154c-0.72682,0 -1.3867,0.19127 -1.97963,0.57381v-6.71353c0.68857,-0.13389 1.40583,-0.20083 2.15177,-0.20083c2.81165,0 5.19295,0.98503 7.14389,2.9551c1.97007,1.97007 2.9551,4.35136 2.9551,7.14389v23.03832c0,0.63119 -0.05738,1.24325 -0.17214,1.83618h-7.00044c0.34428,-0.55468 0.51643,-1.19543 0.51643,-1.92225zM356.69566,325.32823c0,1.01372 0.36341,1.87443 1.09023,2.58213c0.66944,0.65031 1.47277,0.9946 2.40999,1.03285v0l0.17214,0.02869l0.17214,-0.02869h9.49649c-0.4973,1.33888 -1.2815,2.54387 -2.35261,3.61498c-1.97007,1.97007 -4.35136,2.9551 -7.14389,2.9551c-2.79252,0 -5.16426,-0.9946 -7.1152,-2.98379c-1.95094,-1.97007 -2.92641,-4.3418 -2.92641,-7.1152v-23.03832c0,-2.81165 0.98503,-5.19295 2.9551,-7.14389c0.97547,-0.9946 2.05614,-1.73098 3.24201,-2.20915z" data-paper-data="{&quot;glyphName&quot;:&quot;O&quot;,&quot;glyphIndex&quot;:13,&quot;word&quot;:1}" id="element-id-65029"></path><path d="M380.8529,320.79516v14.17301h-6.36925v-14.17301zM386.61966,299.6504c-0.51643,-0.24865 -1.15718,-0.37297 -1.92225,-0.37297h-3.8445v13.51314h3.8445c1.01372,0 1.86487,-0.35385 2.55344,-1.06154c0.72682,-0.72682 1.09023,-1.59709 1.09023,-2.61082v-15.86574c1.66404,0.47817 3.00292,1.30063 4.01664,2.46737c1.45364,1.70229 2.18046,4.08359 2.18046,7.14389v6.11104c0,2.98379 -1.13805,5.5181 -3.41415,7.60293l4.70521,18.39049h-6.85698l-3.8445,-15.86574c-0.13389,0 -0.33472,0 -0.6025,0h-10.04161v-26.30902h10.04161c0.74595,0 1.44408,0.03825 2.09439,0.11476z" data-paper-data="{&quot;glyphName&quot;:&quot;R&quot;,&quot;glyphIndex&quot;:14,&quot;word&quot;:1}" id="element-id-83096"></path><path d="M398.66959,329.94737h5.27902v4.50438h-5.27902z" data-paper-data="{&quot;glyphName&quot;:&quot;.&quot;,&quot;glyphIndex&quot;:15,&quot;word&quot;:1}" id="element-id-57657"></path><path d="M415.85508,292.73604h1.95094c2.7734,0 5.13557,0.9946 7.08651,2.98379c1.93181,1.97007 2.89772,4.33224 2.89772,7.08651v22.06285c0,2.79252 -0.97547,5.17382 -2.92641,7.14389c-1.95094,1.97007 -4.30355,2.9551 -7.05782,2.9551h-10.01292v-6.28318h10.18506c1.01372,0 1.86487,-0.37297 2.55344,-1.11892c0.70769,-0.72682 1.06154,-1.57797 1.06154,-2.55344v-22.09154c0,-0.74595 -0.19127,-1.40583 -0.57381,-1.97963c-0.80333,-1.14761 -1.84574,-1.71186 -3.12724,-1.69273h-2.03701zM414.13366,326.96358h-6.34056v-34.22754h6.34056z" data-paper-data="{&quot;glyphName&quot;:&quot;D&quot;,&quot;glyphIndex&quot;:16,&quot;word&quot;:1}" id="element-id-3045"></path><path d="M431.2044,334.96818v-6.28318h18.10359v6.28318zM439.23769,292.73604h10.0703v6.39794h-10.0703zM431.2044,326.96358v-34.22754h6.34056v17.93144h8.5784v6.39794h-8.5784v9.89816z" data-paper-data="{&quot;glyphName&quot;:&quot;E&quot;,&quot;glyphIndex&quot;:17,&quot;word&quot;:1}" id="element-id-23485"></path><path d="M453.92713,298.64624l-1.03285,-5.85282h6.62746l0.94678,5.85282zM460.41114,334.96818l-6.16842,-34.62921h6.5127l3.18462,19.91108l-2.40999,14.71813zM476.85069,292.79342c-0.57381,3.15593 -1.23368,6.78048 -1.97963,10.87363c-0.26778,1.43452 -0.59293,3.21331 -0.97547,5.3364l-0.94678,5.27902c-1.58753,8.64535 -2.8499,15.54059 -3.78712,20.68571h-5.82413l1.52059,-9.1809v0.08607l1.26237,-7.77507l0.02869,-0.22952l4.04533,-25.07533z" data-paper-data="{&quot;glyphName&quot;:&quot;V&quot;,&quot;glyphIndex&quot;:18,&quot;lastGlyphOfWord&quot;:true,&quot;word&quot;:1}" id="element-id-45148"></path></g><g data-paper-data="{&quot;fillRule&quot;:&quot;nonzero&quot;,&quot;fillRuleOriginal&quot;:&quot;nonzero&quot;,&quot;isIcon&quot;:true,&quot;iconStyle&quot;:&quot;standalone&quot;,&quot;selectedEffects&quot;:{&quot;container&quot;:&quot;square_simple_filledplus_sharp_upright&quot;,&quot;transformation&quot;:&quot;&quot;,&quot;pattern&quot;:&quot;&quot;},&quot;bounds&quot;:{&quot;x&quot;:198.17471510380028,&quot;y&quot;:115,&quot;width&quot;:153.6505697923995,&quot;height&quot;:153.65056979239955},&quot;widthRatioIconToContainer&quot;:0.7984215211135348,&quot;heightRatioIconToContainer&quot;:0.7597882217048152,&quot;relativeBoundsIconToContainer&quot;:{&quot;top&quot;:0.0008499494837843794,&quot;left&quot;:-0.0004467132359701726},&quot;iconType&quot;:&quot;initial&quot;,&quot;initialText&quot;:&quot;a&quot;,&quot;rawInitialId&quot;:586,&quot;suitableAsStandaloneIcon&quot;:true}" id="element-id-67464"><path d="M206.7351,260.09006v-136.52964h136.52964v136.52964zM310.54753,196.50686c0.52764,6.59559 1.1872,12.92735 1.97867,18.99529c1.0553,11.08059 2.90206,19.25912 5.54029,24.53559c2.63823,5.27647 5.40839,8.44235 8.31044,9.49765c1.0553,0.52764 2.11059,0.79147 3.16589,0.79147c1.31912,0 2.50633,-0.39573 3.56162,-1.1872c1.84676,-1.31912 2.77014,-3.03397 2.77014,-5.14456v-0.79147c-0.26383,-8.97 -0.39573,-17.94 -0.39573,-26.90999c0,-8.97 0.13191,-17.94 0.39573,-26.90999c0.26383,-5.01265 0.39573,-10.02529 0.39573,-15.03794c0,-2.63823 -0.13191,-5.27647 -0.39573,-7.9147c-0.26383,-4.22117 -2.50633,-6.85941 -6.7275,-7.9147c-3.4297,-0.79147 -6.7275,-1.31912 -9.89338,-1.58294l-5.54029,-0.79147h-2.37441c-4.485,0 -8.31044,1.71486 -11.47632,5.14456c-9.49765,9.49765 -18.46765,19.52294 -26.90999,30.07588c-0.79147,1.31912 -1.84676,2.50633 -3.16589,3.56162l-1.58294,2.37441c-0.52764,-0.79147 -0.79147,-1.45103 -0.79147,-1.97867c0,-0.26383 0,-0.65956 0,-1.1872c0,-0.52764 0.13191,-1.1872 0.39573,-1.97867c0,-0.26383 0.13191,-0.52764 0.39573,-0.79147c3.95736,-12.92735 10.1572,-24.79941 18.59956,-35.61617c0.52764,-0.52764 1.0553,-1.31912 1.58294,-2.37441c1.58294,-1.84676 3.23184,-3.62758 4.94669,-5.34242c1.71486,-1.71486 3.89139,-2.96801 6.52964,-3.75948c1.0553,-0.26383 1.58294,-0.79147 1.58294,-1.58294c0,-1.0553 -0.39573,-1.84676 -1.1872,-2.37441c-2.37441,-1.58294 -4.74882,-2.63823 -7.12323,-3.16589c-6.06794,-1.31912 -12.13588,-2.2425 -18.20382,-2.77014c-0.79147,-0.26383 -1.71486,-0.39573 -2.77014,-0.39573c-2.11059,-0.26383 -4.22117,-0.39573 -6.33176,-0.39573c-15.03794,0 -26.77809,6.99132 -35.22044,20.97397c-8.70617,14.24647 -14.11456,29.54824 -16.22515,45.90529c-0.52764,2.37441 -0.79147,5.14456 -0.79147,8.31044c0,1.84676 0.13191,4.88073 0.39573,9.10191c0.26383,4.22117 1.51698,8.97 3.75948,14.24647c2.2425,5.27647 5.87007,9.10191 10.88272,11.47632c2.90206,1.0553 5.93603,1.58294 9.10191,1.58294c5.27647,0 11.47632,-1.97867 18.59956,-5.93603c7.12323,-3.95736 13.85073,-10.1572 20.1825,-18.59956c6.85941,-8.70617 13.85073,-17.28044 20.97397,-25.72279c1.58294,-2.11059 3.29779,-4.22117 5.14456,-6.33176c0.26383,-0.26383 0.52764,-0.65956 0.79147,-1.1872c1.0553,-1.84676 3.03397,-3.69353 5.93603,-5.54029c0.52764,5.01265 0.92338,9.89338 1.1872,14.6422zM351.82528,260.09c0,0.01441 -0.00027,0.02896 -0.0008,0.04364l-0.00801,0.33156c-0.00053,0.02963 -0.00201,0.05926 -0.0044,0.08889l-0.02443,0.33076c-0.00214,0.0299 -0.00507,0.05953 -0.00881,0.08889l-0.04085,0.32957c-0.00347,0.02856 -0.00761,0.057 -0.01241,0.08529l-0.05646,0.32676c-0.00534,0.0299 -0.01121,0.05966 -0.01762,0.0893l-0.07288,0.32356c-0.00668,0.02856 -0.01388,0.05687 -0.02163,0.08489l-0.0885,0.31955c-0.00748,0.02776 -0.01575,0.05526 -0.02483,0.08249l-0.10371,0.31515c-0.00961,0.0291 -0.02002,0.05806 -0.03124,0.0869l-0.11973,0.30954c-0.01014,0.02643 -0.02096,0.05273 -0.03244,0.07888l-0.13414,0.30313c-0.01228,0.02776 -0.02523,0.05513 -0.03884,0.08209l-0.14936,0.29632c-0.01308,0.02563 -0.0267,0.05112 -0.04085,0.07649l-0.16338,0.28872c-0.01468,0.02563 -0.0299,0.05099 -0.04565,0.07608l-0.1774,0.2803c-0.01602,0.02509 -0.03257,0.04979 -0.04965,0.07408l-0.19101,0.2711c-0.01709,0.02429 -0.0347,0.04805 -0.05286,0.07128l-0.20422,0.26149c-0.01815,0.02322 -0.03684,0.04592 -0.05606,0.06807l-0.21664,0.25107c-0.01895,0.02216 -0.03857,0.04391 -0.05886,0.06527l-0.22865,0.24026c-0.02056,0.02136 -0.04151,0.04232 -0.06287,0.06287l-0.24026,0.22865c-0.02136,0.02029 -0.04311,0.03991 -0.06527,0.05886l-0.25107,0.21664c-0.02216,0.01922 -0.04485,0.03791 -0.06807,0.05606l-0.26149,0.20422c-0.02322,0.01815 -0.04699,0.03577 -0.07128,0.05286l-0.2711,0.19101c-0.02429,0.01709 -0.04898,0.03363 -0.07408,0.04965l-0.2803,0.1774c-0.02509,0.01575 -0.05046,0.03097 -0.07608,0.04565l-0.28872,0.16338c-0.02536,0.01415 -0.05086,0.02776 -0.07649,0.04085l-0.29632,0.14936c-0.02697,0.01361 -0.05432,0.02657 -0.08209,0.03884l-0.30313,0.13414c-0.02616,0.01148 -0.05246,0.02229 -0.07888,0.03244l-0.30954,0.11973c-0.02883,0.01121 -0.0578,0.02163 -0.0869,0.03124l-0.31515,0.10371c-0.02723,0.00907 -0.05473,0.01735 -0.08249,0.02483l-0.31955,0.0885c-0.02803,0.00774 -0.05633,0.01495 -0.08489,0.02163l-0.32356,0.07288c-0.02963,0.00641 -0.0594,0.01228 -0.0893,0.01762l-0.32676,0.05646c-0.02829,0.0048 -0.05673,0.00894 -0.08529,0.01241l-0.32957,0.04085c-0.02936,0.00373 -0.059,0.00668 -0.08889,0.00881l-0.33076,0.02443c-0.02963,0.0024 -0.05926,0.00387 -0.08889,0.0044l-0.33156,0.00801c-0.01468,0.00053 -0.02923,0.0008 -0.04364,0.0008h-136.52958c-0.0145,0 -0.02899,-0.00027 -0.04349,-0.0008l-0.3316,-0.00801c-0.02979,-0.00053 -0.05953,-0.00201 -0.08922,-0.0044l-0.3308,-0.02443c-0.02979,-0.00214 -0.05951,-0.00507 -0.08914,-0.00881l-0.32924,-0.04085c-0.02843,-0.00347 -0.05676,-0.00761 -0.08498,-0.01241l-0.3268,-0.05646c-0.02985,-0.00507 -0.05953,-0.01095 -0.08906,-0.01762l-0.32367,-0.07288c-0.02851,-0.00641 -0.05684,-0.01361 -0.08498,-0.02163l-0.31967,-0.0885c-0.02779,-0.00748 -0.05538,-0.01575 -0.08277,-0.02483l-0.31498,-0.10371c-0.02918,-0.00961 -0.05808,-0.02002 -0.0867,-0.03124l-0.30946,-0.11973c-0.02651,-0.01014 -0.05275,-0.02096 -0.07872,-0.03244l-0.30325,-0.13414c-0.02771,-0.01228 -0.05508,-0.02523 -0.08213,-0.03884l-0.29632,-0.14936c-0.0259,-0.01308 -0.05147,-0.02683 -0.07673,-0.04125l-0.28859,-0.16338c-0.02568,-0.01441 -0.05099,-0.0295 -0.07593,-0.04525l-0.28027,-0.1774c-0.02507,-0.01602 -0.04972,-0.03257 -0.07396,-0.04965l-0.27118,-0.19101c-0.02429,-0.01709 -0.04813,-0.0347 -0.07152,-0.05286l-0.26149,-0.20422c-0.02301,-0.01788 -0.04557,-0.03644 -0.06768,-0.05566l-0.2512,-0.21664c-0.02234,-0.01922 -0.0442,-0.03897 -0.06556,-0.05926l-0.24023,-0.22865c-0.02143,-0.02056 -0.04235,-0.04151 -0.06275,-0.06287l-0.22873,-0.24026c-0.02024,-0.02109 -0.03993,-0.04285 -0.05906,-0.06527l-0.21668,-0.25107c-0.01938,-0.02243 -0.03819,-0.04525 -0.05642,-0.06847l-0.20406,-0.26149c-0.01808,-0.02322 -0.03556,-0.04685 -0.05246,-0.07088l-0.19101,-0.2711c-0.01709,-0.02429 -0.03356,-0.04885 -0.04941,-0.07368l-0.17747,-0.2803c-0.0158,-0.02509 -0.03099,-0.05046 -0.04557,-0.07608l-0.1635,-0.28872c-0.01452,-0.02563 -0.0284,-0.05166 -0.04165,-0.07809l-0.14913,-0.29632c-0.01319,-0.02616 -0.02574,-0.05273 -0.03764,-0.07969l-0.13443,-0.30313c-0.01198,-0.02697 -0.02332,-0.05432 -0.034,-0.08209l-0.11937,-0.30954c-0.01062,-0.0275 -0.02056,-0.05526 -0.02979,-0.08329l-0.10408,-0.31515c-0.00923,-0.02776 -0.01777,-0.0558 -0.02559,-0.08409l-0.08846,-0.31955c-0.00787,-0.02856 -0.01504,-0.05727 -0.0215,-0.0861l-0.07268,-0.32356c-0.00646,-0.02883 -0.01223,-0.0578 -0.0173,-0.0869l-0.0567,-0.32676c-0.00505,-0.0291 -0.00938,-0.05833 -0.01301,-0.0877l-0.0406,-0.32957c-0.00358,-0.0291 -0.00645,-0.05833 -0.00861,-0.0877l-0.02443,-0.33076c-0.00219,-0.02936 -0.00364,-0.05886 -0.00436,-0.0885l-0.00813,-0.33156c-0.00035,-0.01468 -0.00052,-0.02936 -0.00052,-0.04405v-136.52958c0,-0.01471 0.00018,-0.02943 0.00052,-0.04417l0.00813,-0.3316c0.00072,-0.02955 0.00217,-0.05906 0.00436,-0.08853l0.02443,-0.3308c0.00216,-0.02936 0.00505,-0.05866 0.00865,-0.0879l0.0406,-0.32924c0.0036,-0.02926 0.00793,-0.05843 0.01298,-0.0875l0.0567,-0.3268c0.00505,-0.02905 0.0108,-0.05796 0.01726,-0.08674l0.07268,-0.32367c0.00646,-0.02878 0.01363,-0.05738 0.0215,-0.08581l0.08846,-0.31967c0.00787,-0.02846 0.01645,-0.0567 0.02571,-0.08473l0.10408,-0.31498c0.00923,-0.02798 0.01915,-0.05571 0.02975,-0.08321l0.11937,-0.30946c0.01062,-0.02753 0.02192,-0.05478 0.03388,-0.08177l0.13443,-0.30325c0.01193,-0.02688 0.02451,-0.05347 0.03772,-0.07977l0.14913,-0.29632c0.01329,-0.02643 0.02723,-0.05249 0.04181,-0.07821l0.1635,-0.28859c0.01452,-0.02565 0.02967,-0.05092 0.04545,-0.0758l0.17747,-0.28027c0.0158,-0.02496 0.03221,-0.04952 0.04921,-0.07368l0.19101,-0.27118c0.01696,-0.02408 0.03449,-0.04772 0.05262,-0.07092l0.20406,-0.26149c0.01815,-0.02326 0.03685,-0.04605 0.0561,-0.0684l0.21668,-0.2512c0.0193,-0.02234 0.03912,-0.04421 0.05946,-0.06559l0.22873,-0.24023c0.02031,-0.02133 0.04114,-0.04215 0.06247,-0.06247l0.24023,-0.22873c0.02138,-0.02034 0.04324,-0.04016 0.06559,-0.05946l0.2512,-0.21668c0.02234,-0.01924 0.04514,-0.03795 0.0684,-0.0561l0.26149,-0.20406c0.0232,-0.01812 0.04684,-0.03566 0.07092,-0.05262l0.27118,-0.19101c0.02416,-0.01701 0.04872,-0.03341 0.07368,-0.04921l0.28027,-0.17747c0.02488,-0.01578 0.05015,-0.03093 0.0758,-0.04545l0.28859,-0.1635c0.02571,-0.01457 0.05178,-0.02851 0.07821,-0.04181l0.29632,-0.14913c0.0263,-0.01321 0.05289,-0.02579 0.07977,-0.03772l0.30325,-0.13443c0.02699,-0.01196 0.05425,-0.02326 0.08177,-0.03388l0.30946,-0.11937c0.0275,-0.0106 0.05524,-0.02051 0.08321,-0.02975l0.31498,-0.10408c0.02803,-0.00927 0.05627,-0.01783 0.08473,-0.02571l0.31967,-0.08846c0.02843,-0.00787 0.05704,-0.01504 0.08581,-0.0215l0.32367,-0.07268c0.02878,-0.00646 0.05769,-0.01222 0.08674,-0.01726l0.3268,-0.0567c0.02907,-0.00505 0.05823,-0.00937 0.0875,-0.01298l0.32924,-0.0406c0.02923,-0.0036 0.05853,-0.00648 0.0879,-0.00865l0.3308,-0.02443c0.02947,-0.00219 0.05899,-0.00364 0.08853,-0.00436l0.3316,-0.00813c0.01474,-0.00035 0.02946,-0.00052 0.04417,-0.00052h136.52958c0.01468,0 0.02936,0.00018 0.04405,0.00052l0.33156,0.00813c0.02963,0.00072 0.05913,0.00217 0.0885,0.00436l0.33076,0.02443c0.02936,0.00216 0.05859,0.00503 0.0877,0.00861l0.32957,0.0406c0.02936,0.00363 0.05859,0.00797 0.0877,0.01301l0.32676,0.0567c0.0291,0.00507 0.05806,0.01084 0.0869,0.0173l0.32356,0.07268c0.02883,0.00646 0.05753,0.01363 0.0861,0.0215l0.31955,0.08846c0.02829,0.00782 0.05633,0.01635 0.08409,0.02559l0.31515,0.10408c0.02803,0.00923 0.0558,0.01917 0.08329,0.02979l0.30954,0.11937c0.02776,0.01068 0.05513,0.02201 0.08209,0.034l0.30313,0.13443c0.02697,0.01191 0.05352,0.02445 0.07969,0.03764l0.29632,0.14913c0.02643,0.01324 0.05246,0.02712 0.07809,0.04165l0.28872,0.1635c0.02563,0.01457 0.05099,0.02977 0.07608,0.04557l0.2803,0.17747c0.02483,0.01586 0.04939,0.03233 0.07368,0.04941l0.2711,0.19101c0.02402,0.0169 0.04765,0.03439 0.07088,0.05246l0.26149,0.20406c0.02322,0.01823 0.04605,0.03704 0.06847,0.05642l0.25107,0.21668c0.02243,0.01914 0.04418,0.03883 0.06527,0.05906l0.24026,0.22873c0.02136,0.0204 0.04232,0.04131 0.06287,0.06275l0.22865,0.24023c0.02029,0.02136 0.04004,0.04321 0.05926,0.06556l0.21664,0.2512c0.01922,0.0221 0.03777,0.04467 0.05566,0.06768l0.20422,0.26149c0.01815,0.02339 0.03577,0.04722 0.05286,0.07152l0.19101,0.27118c0.01709,0.02424 0.03363,0.04889 0.04965,0.07396l0.1774,0.28027c0.01575,0.02494 0.03084,0.05024 0.04525,0.07593l0.16338,0.28859c0.01441,0.02525 0.02816,0.05083 0.04125,0.07673l0.14936,0.29632c0.01361,0.02704 0.02657,0.05442 0.03884,0.08213l0.13414,0.30325c0.01148,0.02597 0.02229,0.05222 0.03244,0.07872l0.11973,0.30946c0.01121,0.02862 0.02163,0.05752 0.03124,0.0867l0.10371,0.31498c0.00907,0.02739 0.01735,0.05498 0.02483,0.08277l0.0885,0.31967c0.00801,0.02814 0.01522,0.05646 0.02163,0.08498l0.07288,0.32367c0.00668,0.02952 0.01255,0.05921 0.01762,0.08906l0.05646,0.3268c0.0048,0.02822 0.00894,0.05654 0.01241,0.08498l0.04085,0.32924c0.00373,0.02963 0.00668,0.05935 0.00881,0.08914l0.02443,0.3308c0.0024,0.02969 0.00387,0.05942 0.0044,0.08922l0.00801,0.3316c0.00053,0.0145 0.0008,0.02899 0.0008,0.04349zM348.22053,123.58212l-0.00641,-0.26501l-0.01762,-0.24166l-0.03003,-0.24218l-0.04165,-0.23983l-0.05326,-0.23654l-0.06527,-0.23574l-0.07568,-0.23009l-0.0877,-0.22669l-0.09851,-0.22292l-0.10932,-0.21684l-0.12013,-0.21215l-0.12974,-0.20531l-0.14015,-0.1985l-0.14976,-0.19177l-0.15897,-0.18452l-0.16739,-0.17599l-0.17659,-0.16786l-0.1838,-0.15885l-0.19181,-0.14965l-0.19862,-0.13999l-0.20542,-0.12994l-0.21183,-0.11993l-0.21744,-0.10944l-0.22225,-0.09859l-0.22665,-0.08746l-0.23145,-0.07633l-0.23426,-0.06491l-0.23706,-0.0533l-0.23946,-0.04152l-0.24187,-0.02979l-0.24267,-0.0179l-0.26509,-0.00653h-136.48553l-0.26513,0.00653l-0.24255,0.0179l-0.24151,0.02979l-0.23963,0.04156l-0.23734,0.0533l-0.23434,0.06483l-0.23098,0.07633l-0.22693,0.08753l-0.2224,0.09859l-0.21732,0.10936l-0.21152,0.11986l-0.20551,0.1301l-0.19882,0.14008l-0.19181,0.14965l-0.18412,0.15885l-0.17619,0.16775l-0.16775,0.17619l-0.15885,0.18412l-0.14965,0.19181l-0.14008,0.19882l-0.1301,0.20551l-0.11986,0.21152l-0.10936,0.21732l-0.09859,0.2224l-0.08753,0.22693l-0.07633,0.23098l-0.06483,0.23434l-0.0533,0.23734l-0.04156,0.23963l-0.02979,0.24151l-0.0179,0.24255l-0.00653,0.26513v136.48553l0.00653,0.26509l0.0179,0.24267l0.02979,0.24187l0.04152,0.23946l0.0533,0.23706l0.06491,0.23426l0.07633,0.23145l0.08746,0.22665l0.09859,0.22225l0.10944,0.21744l0.11993,0.21183l0.12994,0.20542l0.13999,0.19862l0.14965,0.19181l0.15885,0.1838l0.16786,0.17659l0.17599,0.16739l0.18452,0.15897l0.19177,0.14976l0.1985,0.14015l0.20531,0.12974l0.21215,0.12013l0.21684,0.10932l0.22292,0.09851l0.22669,0.0877l0.23009,0.07568l0.23574,0.06527l0.23654,0.05326l0.23983,0.04165l0.24218,0.03003l0.24166,0.01762l0.26501,0.00641h136.48625l0.26469,-0.00601l0.24187,-0.01802l0.24267,-0.03003l0.23946,-0.04125l0.23626,-0.05326l0.23586,-0.06527l0.23065,-0.07608l0.22665,-0.0877l0.22225,-0.09851l0.21744,-0.10932l0.21223,-0.12013l0.20502,-0.12974l0.19822,-0.13975l0.19181,-0.14976l0.1846,-0.15937l0.17619,-0.16739l0.16739,-0.17619l0.15937,-0.1846l0.14976,-0.19181l0.13975,-0.19822l0.12974,-0.20502l0.12013,-0.21223l0.10932,-0.21744l0.09851,-0.22225l0.0877,-0.22665l0.07608,-0.23065l0.06527,-0.23586l0.05326,-0.23626l0.04125,-0.23946l0.03003,-0.24267l0.01802,-0.24187l0.00601,-0.26469z" data-paper-data="{&quot;isPathIcon&quot;:true}" id="element-id-15564"></path></g></g></g><g class="watermark-group" style="opacity:0.10; stroke: white; stroke-width: 2; stroke-opacity: 0.7;"><path class="watermark-path" d="M129.52,370.3a11.88,11.88,0,0,1,2.58,5.58,12,12,0,0,1,.11,3,11.81,11.81,0,0,1-.64,2.93,12.34,12.34,0,0,1-1.41,2.72,11.65,11.65,0,0,1-2.13,2.32,12,12,0,0,1-2.64,1.69,13,13,0,0,1-2.91.9,12.47,12.47,0,0,1-3,.12,12.17,12.17,0,0,1-2.93-.64,11.8,11.8,0,0,1-2.72-1.38,12.19,12.19,0,0,1-4-4.79,11.85,11.85,0,0,1-.89-2.92,12.14,12.14,0,0,1-.13-3,11.54,11.54,0,0,1,.64-2.92,11.67,11.67,0,0,1,3.5-5,11.44,11.44,0,0,1,2.67-1.69,11.64,11.64,0,0,1,2.92-.91,10.71,10.71,0,0,1,3-.12,11.68,11.68,0,0,1,5.66,2,11.7,11.7,0,0,1,2.34,2.12m-1.4,8.76a13,13,0,0,1-1.22,2.32,9.68,9.68,0,0,1-1.81,2,7.44,7.44,0,0,1-2.38,1.37,6.17,6.17,0,0,1-5.11-.46,8.73,8.73,0,0,1-3.85-4.58,6.69,6.69,0,0,1-.34-2.66,6.09,6.09,0,0,1,.77-2.47,7.15,7.15,0,0,1,1.75-2.11,9.58,9.58,0,0,1,1.09-.81,8.23,8.23,0,0,1,1.12-.63,8.14,8.14,0,0,1,1.19-.46,12.71,12.71,0,0,1,1.32-.37l2,2.38a12.83,12.83,0,0,0-1.56.17,7.86,7.86,0,0,0-1.23.32,4.5,4.5,0,0,0-1,.49,6.41,6.41,0,0,0-.93.67,4.49,4.49,0,0,0-1.15,1.39,3.87,3.87,0,0,0-.45,1.58,4.12,4.12,0,0,0,.26,1.63,6.11,6.11,0,0,0,2.36,2.82,4.43,4.43,0,0,0,1.57.53,3.91,3.91,0,0,0,1.62-.17,4.71,4.71,0,0,0,1.57-.89,10.5,10.5,0,0,0,.83-.79,5.71,5.71,0,0,0,.65-.93,10.13,10.13,0,0,0,.54-1.14,12.24,12.24,0,0,0,.44-1.49l2,2.33m-14.46,4.55a8.86,8.86,0,0,0,2.78,2.22,9,9,0,0,0,3.29.94,9.15,9.15,0,0,0,3.39-.37,8.68,8.68,0,0,0,3.11-1.69,8.8,8.8,0,0,0,2.22-2.78,9.15,9.15,0,0,0,1-3.29,8.95,8.95,0,0,0-4.83-8.76,9,9,0,0,0-6.73-.57,9,9,0,0,0-5.33,4.47,8.94,8.94,0,0,0-.57,6.71,8.76,8.76,0,0,0,1.7,3.12"></path><path class="watermark-path" d="M147,349c-.48.12-1.09.31-1.82.57a24.37,24.37,0,0,0-2.4,1A28.35,28.35,0,0,0,140,352a20.72,20.72,0,0,0-2.71,1.94c-.7.59-1.28,1.11-1.74,1.57a15.07,15.07,0,0,0-1.1,1.22,4.09,4.09,0,0,0-.59.92,2.32,2.32,0,0,0-.22.64,1.16,1.16,0,0,0,0,.47,1.83,1.83,0,0,0,.18.29,1.15,1.15,0,0,0,1,.37,5.54,5.54,0,0,0,1.51-.38q.87-.35,1.95-.9l2.26-1.18q1.2-.65,2.49-1.29c.87-.44,1.73-.83,2.59-1.17a18.94,18.94,0,0,1,2.6-.81,9.27,9.27,0,0,1,2.46-.29,6.25,6.25,0,0,1,2.24.49,5.12,5.12,0,0,1,1.89,1.47,6.35,6.35,0,0,1,1.41,2.61,6,6,0,0,1,.09,2.6,8.3,8.3,0,0,1-.9,2.52,17.79,17.79,0,0,1-1.62,2.37,23.92,23.92,0,0,1-2,2.15c-.72.67-1.41,1.29-2.09,1.87a33.79,33.79,0,0,1-5.33,3.7,32.29,32.29,0,0,1-4.91,2.28l-3.61-4.3a21.38,21.38,0,0,0,5.39-1.87,27.2,27.2,0,0,0,5.4-3.56,21.59,21.59,0,0,0,2.38-2.27,8.67,8.67,0,0,0,1.18-1.7,2.32,2.32,0,0,0,.27-1.19,1.34,1.34,0,0,0-.28-.74,1.21,1.21,0,0,0-1-.42,4.32,4.32,0,0,0-1.55.34,15.77,15.77,0,0,0-2,.88c-.72.37-1.48.77-2.27,1.21l-2.45,1.3c-.85.45-1.7.85-2.56,1.21a22.37,22.37,0,0,1-2.54.86,10,10,0,0,1-2.43.32,5.76,5.76,0,0,1-2.2-.45,5,5,0,0,1-1.89-1.45,6.12,6.12,0,0,1-1.31-2.41,6,6,0,0,1-.1-2.41,8.28,8.28,0,0,1,.81-2.38,14.06,14.06,0,0,1,1.49-2.24,22.37,22.37,0,0,1,1.85-2.05q1-1,2-1.77c.7-.59,1.44-1.15,2.23-1.7s1.62-1.06,2.44-1.53,1.63-.91,2.43-1.3,1.58-.75,2.3-1L147,349"></path><path class="watermark-path" d="M186.76,337.57l-10.6-12.63,3.92,18.24-4.66,3.91-17.27-7,10.6,12.63-4.86,4.07-15.09-18,6.59-5.54,18.69,7.52-4.15-19.71,6.57-5.52,15.09,18-4.83,4.05"></path><path class="watermark-path" d="M208.84,313.24l-10,8.42,1.16,4.82L194.56,331l-5.68-25.89,5.42-4.55,24.51,10.09-5.42,4.55-4.55-2m-11.23,3.45,6.57-5.52-8.83-3.87,2.26,9.39"></path><path class="watermark-path" d="M227.49,281.38c-.48.12-1.09.31-1.82.57a24.37,24.37,0,0,0-2.4,1,26.11,26.11,0,0,0-2.7,1.47,20.72,20.72,0,0,0-2.71,1.94c-.7.59-1.28,1.11-1.74,1.57a13.39,13.39,0,0,0-1.1,1.22,4.29,4.29,0,0,0-.59.91,2.48,2.48,0,0,0-.22.65,1.16,1.16,0,0,0,0,.47,1.83,1.83,0,0,0,.18.29,1.15,1.15,0,0,0,1,.37,5.54,5.54,0,0,0,1.51-.38q.87-.34,2-.9l2.26-1.18q1.2-.64,2.49-1.29c.87-.44,1.73-.83,2.59-1.17a18.94,18.94,0,0,1,2.6-.81,9.27,9.27,0,0,1,2.46-.29,6.08,6.08,0,0,1,2.24.49,5.09,5.09,0,0,1,1.89,1.46,6.47,6.47,0,0,1,1.41,2.61,6.07,6.07,0,0,1,.09,2.61,8.3,8.3,0,0,1-.9,2.52,16.32,16.32,0,0,1-1.63,2.36,21.41,21.41,0,0,1-2,2.16c-.72.67-1.41,1.29-2.1,1.86a33.36,33.36,0,0,1-5.32,3.71,31.92,31.92,0,0,1-4.92,2.28l-3.6-4.3a21.38,21.38,0,0,0,5.39-1.87,27.2,27.2,0,0,0,5.4-3.56,21.59,21.59,0,0,0,2.38-2.27,8.67,8.67,0,0,0,1.18-1.7A2.32,2.32,0,0,0,231,293a1.34,1.34,0,0,0-.28-.74,1.21,1.21,0,0,0-1-.42,4.32,4.32,0,0,0-1.55.34,16.54,16.54,0,0,0-2,.88c-.71.37-1.47.77-2.26,1.21l-2.46,1.3c-.84.44-1.7.85-2.55,1.21a24.53,24.53,0,0,1-2.54.86A10,10,0,0,1,214,298a5.76,5.76,0,0,1-2.2-.45,5,5,0,0,1-1.89-1.45,6.12,6.12,0,0,1-1.31-2.41,5.78,5.78,0,0,1-.1-2.41,8,8,0,0,1,.81-2.38,14.61,14.61,0,0,1,1.49-2.25,22.26,22.26,0,0,1,1.85-2q1-1,2-1.77c.7-.59,1.44-1.15,2.23-1.7s1.62-1.06,2.44-1.53,1.63-.91,2.43-1.31,1.58-.74,2.3-1l3.5,4.16"></path><path class="watermark-path" d="M261.64,274.74l-6.29-7.5L243,277.61l6.3,7.5-4.86,4.07-15.09-18,4.85-4.08,5.49,6.55L252,263.3l-5.49-6.55,4.86-4.07,15.09,18-4.86,4.08"></path><path class="watermark-path" d="M272.18,265.9l-15.09-18,4.86-4.08,15.09,18-4.86,4.08"></path><path class="watermark-path" d="M299.65,242.85l-22.51-2.18L287.51,253l-4.85,4.08-15.1-18,5.28-4.43,22.56,2.22L285,224.5l4.83-4.06,15.09,18-5.26,4.42"></path><path class="watermark-path" d="M306.68,205.52a31.88,31.88,0,0,1,5.29-3.66,34.48,34.48,0,0,1,5.14-2.35l3.69,4.39a20.77,20.77,0,0,0-2.37.61,20.47,20.47,0,0,0-2.61,1,25.12,25.12,0,0,0-2.76,1.49,23.9,23.9,0,0,0-2.8,2,20.42,20.42,0,0,0-2.8,2.77,12.77,12.77,0,0,0-1.64,2.52,7,7,0,0,0-.68,2.24,6,6,0,0,0,.66,3.64,8.16,8.16,0,0,0,.94,1.38,9.12,9.12,0,0,0,1.08,1.07,6.39,6.39,0,0,0,1.47.91,6.73,6.73,0,0,0,1.88.48,6.54,6.54,0,0,0,2.28-.18,11.67,11.67,0,0,0,2.74-1.07,19.38,19.38,0,0,0,3.18-2.22c.57-.48,1.06-.92,1.46-1.31a14.57,14.57,0,0,0,1-1.13,11.46,11.46,0,0,0,.81-1.05l.74-1.09-1.82-2.17-5.45,4.57-3.31-3.94,10.31-8.65,7.71,9.19a29,29,0,0,1-1.67,2.43q-1,1.26-2.1,2.52c-.74.84-1.5,1.65-2.3,2.44s-1.58,1.5-2.33,2.14a31,31,0,0,1-3.59,2.61,22.55,22.55,0,0,1-3.64,1.83,15.64,15.64,0,0,1-3.63.89,10.72,10.72,0,0,1-3.49-.15,10.45,10.45,0,0,1-3.28-1.33,12.54,12.54,0,0,1-3-2.67,12,12,0,0,1-2.08-3.44,10.45,10.45,0,0,1-.71-3.5,11.14,11.14,0,0,1,.51-3.51,15.72,15.72,0,0,1,1.56-3.43,21.62,21.62,0,0,1,2.42-3.28,30.3,30.3,0,0,1,3.15-3"></path><path class="watermark-path" d="M336.91,211.59l-15.1-18,4.86-4.08,11.79,14,13.13-11,3.31,3.94-18,15.1"></path><path class="watermark-path" d="M374.54,164.71a12.28,12.28,0,0,1,2.59,4.81,10.44,10.44,0,0,1,0,5,14.62,14.62,0,0,1-2.33,5,25.55,25.55,0,0,1-4.56,4.85,26.07,26.07,0,0,1-5.6,3.67,14.79,14.79,0,0,1-5.38,1.43,10.43,10.43,0,0,1-4.94-.89,13.24,13.24,0,0,1-6.87-8.18,10.48,10.48,0,0,1,0-5,14.51,14.51,0,0,1,2.36-5,25.23,25.23,0,0,1,4.57-4.89,25,25,0,0,1,5.59-3.64,14.45,14.45,0,0,1,5.35-1.43,10.31,10.31,0,0,1,4.93.92,12.22,12.22,0,0,1,4.28,3.38m-4.91,4.11a8.36,8.36,0,0,0-2-1.72,5.5,5.5,0,0,0-2.65-.85,7.72,7.72,0,0,0-3.32.57,14.49,14.49,0,0,0-4,2.52,16.72,16.72,0,0,0-2.38,2.4,10.15,10.15,0,0,0-1.39,2.24,6.71,6.71,0,0,0-.56,2.1,5.69,5.69,0,0,0,.1,1.9,6.21,6.21,0,0,0,.61,1.69,9.85,9.85,0,0,0,1,1.44,10.48,10.48,0,0,0,1.26,1.23,6.67,6.67,0,0,0,1.57.92,6.1,6.1,0,0,0,1.85.41,6.8,6.8,0,0,0,2.15-.2,11.06,11.06,0,0,0,2.45-1,17.67,17.67,0,0,0,2.77-1.94,14.39,14.39,0,0,0,3.18-3.52,7.74,7.74,0,0,0,1.14-3.17,5.54,5.54,0,0,0-.37-2.74,8.52,8.52,0,0,0-1.36-2.3"></path><path class="watermark-path" d="M382.66,141.76A32.3,32.3,0,0,1,388,138.1a34.12,34.12,0,0,1,5.15-2.35l3.69,4.4a19.62,19.62,0,0,0-2.37.6,22.08,22.08,0,0,0-2.61,1,26,26,0,0,0-2.77,1.49,23.9,23.9,0,0,0-2.8,2,21,21,0,0,0-2.8,2.78,13.19,13.19,0,0,0-1.64,2.51,7.29,7.29,0,0,0-.68,2.24,6.36,6.36,0,0,0,.06,2,5.8,5.8,0,0,0,.61,1.68,8.12,8.12,0,0,0,.93,1.38,9.16,9.16,0,0,0,1.08,1.08,6.56,6.56,0,0,0,1.48.9,6,6,0,0,0,1.87.48,6.76,6.76,0,0,0,2.28-.17,12,12,0,0,0,2.74-1.08,18.57,18.57,0,0,0,3.18-2.22c.58-.48,1.06-.92,1.46-1.31s.75-.77,1.05-1.12.57-.72.81-1.06l.73-1.09-1.82-2.17-5.45,4.57-3.3-3.94,10.3-8.65,7.71,9.19a29,29,0,0,1-1.67,2.43q-1,1.26-2.1,2.52c-.73.84-1.5,1.66-2.3,2.44s-1.57,1.5-2.33,2.14a31,31,0,0,1-3.59,2.61,22.15,22.15,0,0,1-3.64,1.83,15.56,15.56,0,0,1-3.62.89,11,11,0,0,1-3.49-.14,10.84,10.84,0,0,1-3.28-1.33,12.82,12.82,0,0,1-3-2.68,12.12,12.12,0,0,1-2.08-3.43A10.71,10.71,0,0,1,375,155a11.18,11.18,0,0,1,.51-3.51,15.51,15.51,0,0,1,1.57-3.43,21.44,21.44,0,0,1,2.42-3.28,30.19,30.19,0,0,1,3.14-3"></path><path class="watermark-path" d="M428.63,119.31a12.26,12.26,0,0,1,2.59,4.82,10.44,10.44,0,0,1,0,5,14.53,14.53,0,0,1-2.34,5,25.29,25.29,0,0,1-4.56,4.86,26,26,0,0,1-5.59,3.67,14.84,14.84,0,0,1-5.38,1.43,10.61,10.61,0,0,1-4.95-.89,12.15,12.15,0,0,1-4.3-3.37,12,12,0,0,1-2.56-4.81,10.48,10.48,0,0,1,0-5,14.39,14.39,0,0,1,2.35-5,27.89,27.89,0,0,1,10.16-8.53,14.49,14.49,0,0,1,5.36-1.43,10.27,10.27,0,0,1,4.92.92,12.21,12.21,0,0,1,4.28,3.37m-4.91,4.12a8.17,8.17,0,0,0-2-1.72,5.58,5.58,0,0,0-2.65-.86,7.86,7.86,0,0,0-3.31.58,14.49,14.49,0,0,0-4,2.52,16.21,16.21,0,0,0-2.38,2.4,9.85,9.85,0,0,0-1.4,2.24,7,7,0,0,0-.56,2.1,6,6,0,0,0,.1,1.9,6.23,6.23,0,0,0,.62,1.69,8.49,8.49,0,0,0,1,1.44,9.18,9.18,0,0,0,1.26,1.23,6.67,6.67,0,0,0,1.57.92,6,6,0,0,0,1.84.41,6.86,6.86,0,0,0,2.16-.2,11.26,11.26,0,0,0,2.45-1,17.62,17.62,0,0,0,2.76-1.94,14.67,14.67,0,0,0,3.19-3.52,7.71,7.71,0,0,0,1.13-3.17,5.53,5.53,0,0,0-.36-2.74,8.55,8.55,0,0,0-1.37-2.3"></path></g><rect data-element-id="element-id-67464" stroke-width="2" fill="transparent" class="invisible-element-box grouping-element" x="198" y="115" width="154" height="154" data-element-name="isIcon"></rect><rect data-element-id="element-id-15564" stroke-width="2" fill="transparent" class="invisible-element-box individual-element" x="198" y="115" width="154" height="154"></rect><rect data-element-id="element-id-50174" stroke-width="2" fill="transparent" class="invisible-element-box grouping-element" x="73" y="292" width="404" height="43" data-element-name="isPrimaryText"></rect><rect data-element-id="element-id-432" stroke-width="2" fill="transparent" class="invisible-element-box grouping-element" x="73" y="344" width="404" height="11" data-element-name="isSecondaryText"></rect><rect data-element-id="element-id-77715" stroke-width="2" fill="transparent" class="invisible-element-box individual-element" x="134" y="293" width="30" height="42"></rect><rect data-element-id="element-id-45148" stroke-width="2" fill="transparent" class="invisible-element-box individual-element" x="453" y="293" width="24" height="42"></rect><rect data-element-id="element-id-84046" stroke-width="2" fill="transparent" class="invisible-element-box individual-element" x="73" y="293" width="23" height="42"></rect><rect data-element-id="element-id-70657" stroke-width="2" fill="transparent" class="invisible-element-box individual-element" x="167" y="293" width="23" height="42"></rect><rect data-element-id="element-id-85267" stroke-width="2" fill="transparent" class="invisible-element-box individual-element" x="248" y="293" width="23" height="42"></rect><rect data-element-id="element-id-35743" stroke-width="2" fill="transparent" class="invisible-element-box individual-element" x="315" y="293" width="22" height="42"></rect><rect data-element-id="element-id-61484" stroke-width="2" fill="transparent" class="invisible-element-box individual-element" x="99" y="293" width="21" height="42"></rect><rect data-element-id="element-id-83096" stroke-width="2" fill="transparent" class="invisible-element-box individual-element" x="374" y="293" width="21" height="42"></rect><rect data-element-id="element-id-92746" stroke-width="2" fill="transparent" class="invisible-element-box individual-element" x="291" y="293" width="20" height="43"></rect><rect data-element-id="element-id-65029" stroke-width="2" fill="transparent" class="invisible-element-box individual-element" x="350" y="292" width="20" height="43"></rect><rect data-element-id="element-id-69654" stroke-width="2" fill="transparent" class="invisible-element-box individual-element" x="193" y="293" width="20" height="42"></rect><rect data-element-id="element-id-3045" stroke-width="2" fill="transparent" class="invisible-element-box individual-element" x="408" y="293" width="20" height="42"></rect><rect data-element-id="element-id-83232" stroke-width="2" fill="transparent" class="invisible-element-box individual-element" x="216" y="293" width="18" height="42"></rect><rect data-element-id="element-id-23485" stroke-width="2" fill="transparent" class="invisible-element-box individual-element" x="431" y="293" width="18" height="42"></rect><rect data-element-id="element-id-72167" stroke-width="2" fill="transparent" class="invisible-element-box individual-element" x="273" y="293" width="14" height="43"></rect><rect data-element-id="element-id-99457" stroke-width="2" fill="transparent" class="invisible-element-box individual-element" x="124" y="293" width="6" height="42"></rect><rect data-element-id="element-id-50311" stroke-width="2" fill="transparent" class="invisible-element-box individual-element" x="238" y="293" width="6" height="42"></rect><rect data-element-id="element-id-68781" stroke-width="2" fill="transparent" class="invisible-element-box individual-element" x="340" y="293" width="6" height="42"></rect><rect data-element-id="element-id-77801" stroke-width="2" fill="transparent" class="invisible-element-box individual-element" x="238" y="344" width="7" height="9"></rect><rect data-element-id="element-id-48712" stroke-width="2" fill="transparent" class="invisible-element-box individual-element" x="228" y="346" width="6" height="9"></rect><rect data-element-id="element-id-83691" stroke-width="2" fill="transparent" class="invisible-element-box individual-element" x="73" y="346" width="7" height="7"></rect><rect data-element-id="element-id-26833" stroke-width="2" fill="transparent" class="invisible-element-box individual-element" x="93" y="346" width="7" height="7"></rect><rect data-element-id="element-id-5096" stroke-width="2" fill="transparent" class="invisible-element-box individual-element" x="144" y="346" width="7" height="7"></rect><rect data-element-id="element-id-44275" stroke-width="2" fill="transparent" class="invisible-element-box individual-element" x="174" y="346" width="7" height="7"></rect><rect data-element-id="element-id-88666" stroke-width="2" fill="transparent" class="invisible-element-box individual-element" x="199" y="346" width="7" height="7"></rect><rect data-element-id="element-id-73717" stroke-width="2" fill="transparent" class="invisible-element-box individual-element" x="322" y="346" width="7" height="7"></rect><rect data-element-id="element-id-84022" stroke-width="2" fill="transparent" class="invisible-element-box individual-element" x="332" y="346" width="7" height="7"></rect><rect data-element-id="element-id-2957" stroke-width="2" fill="transparent" class="invisible-element-box individual-element" x="351" y="346" width="7" height="7"></rect><rect data-element-id="element-id-66816" stroke-width="2" fill="transparent" class="invisible-element-box individual-element" x="390" y="346" width="7" height="7"></rect><rect data-element-id="element-id-98818" stroke-width="2" fill="transparent" class="invisible-element-box individual-element" x="406" y="346" width="7" height="7"></rect><rect data-element-id="element-id-43352" stroke-width="2" fill="transparent" class="invisible-element-box individual-element" x="470" y="346" width="7" height="7"></rect><rect data-element-id="element-id-53210" stroke-width="2" fill="transparent" class="invisible-element-box individual-element" x="84" y="346" width="6" height="7"></rect><rect data-element-id="element-id-22377" stroke-width="2" fill="transparent" class="invisible-element-box individual-element" x="104" y="346" width="6" height="7"></rect><rect data-element-id="element-id-76521" stroke-width="2" fill="transparent" class="invisible-element-box individual-element" x="118" y="346" width="6" height="7"></rect><rect data-element-id="element-id-49222" stroke-width="2" fill="transparent" class="invisible-element-box individual-element" x="136" y="346" width="6" height="7"></rect><rect data-element-id="element-id-61438" stroke-width="2" fill="transparent" class="invisible-element-box individual-element" x="155" y="346" width="6" height="7"></rect><rect data-element-id="element-id-72345" stroke-width="2" fill="transparent" class="invisible-element-box individual-element" x="164" y="346" width="6" height="7"></rect><rect data-element-id="element-id-19212" stroke-width="2" fill="transparent" class="invisible-element-box individual-element" x="189" y="346" width="6" height="7"></rect><rect data-element-id="element-id-99155" stroke-width="2" fill="transparent" class="invisible-element-box individual-element" x="218" y="346" width="6" height="7"></rect><rect data-element-id="element-id-40534" stroke-width="2" fill="transparent" class="invisible-element-box individual-element" x="257" y="346" width="6" height="7"></rect><rect data-element-id="element-id-80720" stroke-width="2" fill="transparent" class="invisible-element-box individual-element" x="276" y="346" width="6" height="7"></rect><rect data-element-id="element-id-7052" stroke-width="2" fill="transparent" class="invisible-element-box individual-element" x="294" y="346" width="6" height="7"></rect><rect data-element-id="element-id-97577" stroke-width="2" fill="transparent" class="invisible-element-box individual-element" x="313" y="346" width="6" height="7"></rect><rect data-element-id="element-id-44027" stroke-width="2" fill="transparent" class="invisible-element-box individual-element" x="371" y="346" width="6" height="7"></rect><rect data-element-id="element-id-22907" stroke-width="2" fill="transparent" class="invisible-element-box individual-element" x="380" y="346" width="6" height="7"></rect><rect data-element-id="element-id-29601" stroke-width="2" fill="transparent" class="invisible-element-box individual-element" x="431" y="346" width="6" height="7"></rect><rect data-element-id="element-id-38645" stroke-width="2" fill="transparent" class="invisible-element-box individual-element" x="440" y="346" width="6" height="7"></rect><rect data-element-id="element-id-87209" stroke-width="2" fill="transparent" class="invisible-element-box individual-element" x="450" y="346" width="6" height="7"></rect><rect data-element-id="element-id-54155" stroke-width="2" fill="transparent" class="invisible-element-box individual-element" x="461" y="346" width="6" height="7"></rect><rect data-element-id="element-id-57116" stroke-width="2" fill="transparent" class="invisible-element-box individual-element" x="128" y="346" width="5" height="7"></rect><rect data-element-id="element-id-72678" stroke-width="2" fill="transparent" class="invisible-element-box individual-element" x="210" y="346" width="5" height="7"></rect><rect data-element-id="element-id-67076" stroke-width="2" fill="transparent" class="invisible-element-box individual-element" x="248" y="346" width="5" height="7"></rect><rect data-element-id="element-id-79159" stroke-width="2" fill="transparent" class="invisible-element-box individual-element" x="286" y="346" width="5" height="7"></rect><rect data-element-id="element-id-50100" stroke-width="2" fill="transparent" class="invisible-element-box individual-element" x="304" y="346" width="5" height="7"></rect><rect data-element-id="element-id-6847" stroke-width="2" fill="transparent" class="invisible-element-box individual-element" x="343" y="346" width="5" height="7"></rect><rect data-element-id="element-id-84099" stroke-width="2" fill="transparent" class="invisible-element-box individual-element" x="362" y="346" width="5" height="7"></rect><rect data-element-id="element-id-78677" stroke-width="2" fill="transparent" class="invisible-element-box individual-element" x="422" y="346" width="5" height="7"></rect><rect data-element-id="element-id-57657" stroke-width="2" fill="transparent" class="invisible-element-box individual-element" x="399" y="330" width="5" height="5"></rect><rect data-element-id="element-id-53310" stroke-width="2" fill="transparent" class="invisible-element-box individual-element" x="114" y="346" width="1" height="7"></rect><rect data-element-id="element-id-32294" stroke-width="2" fill="transparent" class="invisible-element-box individual-element" x="266" y="352" width="1" height="2"></rect></svg>